<svg id="Capa_3" data-name="Capa 3" xmlns="http://www.w3.org/2000/svg" viewBox="0 0 908 367.1"><defs><style>.cls-1{fill:none;}.cls-2{fill:#00a6d6;}.cls-3{fill:#1d1d1b;}.cls-4{fill:#fff;}</style></defs><path class="cls-1" d="M223.32,329.54a14.28,14.28,0,0,0-4.47-3.08,13.37,13.37,0,0,0-5.45-1.13,12.61,12.61,0,0,0-5.4,1.15,13.87,13.87,0,0,0-4.3,3.13,14.61,14.61,0,0,0-2.85,4.59,15.47,15.47,0,0,0,0,11.05,14.54,14.54,0,0,0,2.85,4.6A13.87,13.87,0,0,0,208,353a12.76,12.76,0,0,0,5.4,1.15,13.21,13.21,0,0,0,5.45-1.14,14.36,14.36,0,0,0,4.47-3.05,14.74,14.74,0,0,0,3-4.48,14.5,14.5,0,0,0,1.19-5.42v-.59a14.44,14.44,0,0,0-1.19-5.41A14.83,14.83,0,0,0,223.32,329.54Z" transform="translate(-80 -12.35)"/><path class="cls-1" d="M143.84,323.43a16.94,16.94,0,0,0-5.57-3.46,18.56,18.56,0,0,0-6.76-1.23H123.2V353h3.47c1.83,0,3.66,0,5.49-.11a17.6,17.6,0,0,0,6.7-1.48,17.1,17.1,0,0,0,5.32-3.68,16.64,16.64,0,0,0,3.52-5.41A17.45,17.45,0,0,0,149,335.7a17.1,17.1,0,0,0-1.37-6.9A16.33,16.33,0,0,0,143.84,323.43Z" transform="translate(-80 -12.35)"/><path class="cls-1" d="M330.47,329.68a14.58,14.58,0,0,0-4.49-3.14,13.23,13.23,0,0,0-5.54-1.17,12.47,12.47,0,0,0-5.4,1.17,14,14,0,0,0-4.3,3.14,14.37,14.37,0,0,0-2.85,4.6,15.33,15.33,0,0,0,0,11.05,14.43,14.43,0,0,0,2.85,4.59,13.64,13.64,0,0,0,4.3,3.13,12.61,12.61,0,0,0,5.4,1.15,13.38,13.38,0,0,0,5.54-1.15,14.23,14.23,0,0,0,4.49-3.13,15,15,0,0,0,3-4.59,14.55,14.55,0,0,0,0-11.05A14.94,14.94,0,0,0,330.47,329.68Z" transform="translate(-80 -12.35)"/><path class="cls-2" d="M824.28,330.91a13,13,0,0,0-2.87-3.18,12.73,12.73,0,0,0-3.85-2.07,14.28,14.28,0,0,0-4.64-.73,11.76,11.76,0,0,0-4.21.78,14.2,14.2,0,0,0-3.75,2.14,15,15,0,0,0-3,3.19,13.06,13.06,0,0,0-1.84,3.95h25.9A14.1,14.1,0,0,0,824.28,330.91Z" transform="translate(-80 -12.35)"/><path class="cls-2" d="M963.48,330.91a13,13,0,0,0-2.87-3.18,12.68,12.68,0,0,0-3.84-2.07,14.34,14.34,0,0,0-4.65-.73,11.76,11.76,0,0,0-4.21.78,14.36,14.36,0,0,0-3.75,2.14,14.73,14.73,0,0,0-3,3.19,12.85,12.85,0,0,0-1.85,3.95h25.91A14.12,14.12,0,0,0,963.48,330.91Z" transform="translate(-80 -12.35)"/><path class="cls-2" d="M592,350a13.56,13.56,0,0,0,4.33,3.08,13.22,13.22,0,0,0,5.47,1.13,12.83,12.83,0,0,0,5.37-1.13,13.38,13.38,0,0,0,4.26-3.08,14.14,14.14,0,0,0,2.8-4.55,15.67,15.67,0,0,0,0-11.07,14.74,14.74,0,0,0-2.8-4.63,13.67,13.67,0,0,0-4.26-3.18,12.14,12.14,0,0,0-5.37-1.19,12.51,12.51,0,0,0-5.47,1.19,13.84,13.84,0,0,0-4.33,3.18,14.71,14.71,0,0,0-2.86,4.63,15.53,15.53,0,0,0,0,11.07A14.12,14.12,0,0,0,592,350Z" transform="translate(-80 -12.35)"/><path class="cls-2" d="M473,379.45H984.37V286.22H473Zm456.37-46a24.62,24.62,0,0,1,2.28-5.69,23.74,23.74,0,0,1,3.61-4.87,23,23,0,0,1,10.41-6.22,23.88,23.88,0,0,1,6.46-.86,22.68,22.68,0,0,1,5.49.68,24,24,0,0,1,5.14,1.92,24.36,24.36,0,0,1,4.56,3,22.44,22.44,0,0,1,3.73,4,21.91,21.91,0,0,1,3.22,6.63,28.47,28.47,0,0,1,1,7.87,14.5,14.5,0,0,1-.09,1.77,2,2,0,0,1-1.55,1.8,8.33,8.33,0,0,1-2,.2H939.13a12.27,12.27,0,0,0,1.81,4.66,14.09,14.09,0,0,0,3.16,3.44,13.35,13.35,0,0,0,4,2.12,13.59,13.59,0,0,0,4.32.72,14.88,14.88,0,0,0,3.17-.33,15.87,15.87,0,0,0,2.83-.88,17,17,0,0,0,2.44-1.26,15.05,15.05,0,0,0,1.95-1.48,0,0,0,0,1,0,0,4.93,4.93,0,0,1,.84-.64,1.63,1.63,0,0,1,.84-.24,1.68,1.68,0,0,1,.76.22,2.84,2.84,0,0,1,.82.73q1,1.22,1.68,2c.46.54.84,1,1.14,1.36a5.85,5.85,0,0,1,.64.95,1.86,1.86,0,0,1,.2.81,2.75,2.75,0,0,1-1.39,2,26.23,26.23,0,0,1-7,4.32,21.86,21.86,0,0,1-8.4,1.58,23.92,23.92,0,0,1-9.36-1.87,24.51,24.51,0,0,1-13-12.75,22.92,22.92,0,0,1-2-9.43A24.27,24.27,0,0,1,929.36,333.49Zm-45.91,0a23.66,23.66,0,0,1,2.45-5.75,24.43,24.43,0,0,1,8.64-8.58,24.31,24.31,0,0,1,5.71-2.41,22.88,22.88,0,0,1,6.31-.86,23.52,23.52,0,0,1,7.69,1.24,22.85,22.85,0,0,1,6.43,3.37l0,0a11.49,11.49,0,0,0,1,.9,1.44,1.44,0,0,1,.49,1.19c0,.14,0,.31,0,.51a1.06,1.06,0,0,1-.2.55l-3,4.57a2,2,0,0,1-1.61,1.1,2.26,2.26,0,0,1-1.39-.62,15.76,15.76,0,0,0-4.36-2.56,13.72,13.72,0,0,0-5.12-1,12.39,12.39,0,0,0-5.36,1.19,14.41,14.41,0,0,0-4.41,3.22,15.2,15.2,0,0,0-3,4.72,15.09,15.09,0,0,0,3,16,14.22,14.22,0,0,0,4.41,3.13,12.81,12.81,0,0,0,5.38,1.15,12.41,12.41,0,0,0,5.38-1.08,20.84,20.84,0,0,0,4.13-2.58,3.37,3.37,0,0,1,1-.49,3.51,3.51,0,0,1,.71-.09,1.35,1.35,0,0,1,1.06.66l.88,1.2,2.6,3.7a2.51,2.51,0,0,1,.29.53,1.22,1.22,0,0,1,.11.49,1.55,1.55,0,0,1-.4,1.05,6.81,6.81,0,0,1-1.06.93,29.38,29.38,0,0,1-6.72,3.66,21.74,21.74,0,0,1-7.92,1.39,23.27,23.27,0,0,1-6.31-.86,24.25,24.25,0,0,1-10.56-6.15A24.46,24.46,0,0,1,885.9,352a23.43,23.43,0,0,1-2.45-5.74,24.28,24.28,0,0,1,0-12.81Zm-38.73-14.75a1.89,1.89,0,0,1,.71-1.61,2.56,2.56,0,0,1,1.56-.55h4.67a1.76,1.76,0,0,1,1.39.55,3.94,3.94,0,0,1,.74,1.36,9,9,0,0,1,.36,1.73c.08.63.16,1.19.26,1.71a20.58,20.58,0,0,1,1.82-2.22,12.47,12.47,0,0,1,2.28-1.92,11.82,11.82,0,0,1,2.89-1.35,12.16,12.16,0,0,1,3.66-.52,20.6,20.6,0,0,1,3.3.24,16,16,0,0,1,2.8.73,15,15,0,0,1,2.61,1.28c.86.53,1.77,1.15,2.75,1.85a5.7,5.7,0,0,1,1.08.92,1.76,1.76,0,0,1,.45,1.21,5.43,5.43,0,0,1-.11.62,1.74,1.74,0,0,1-.29.66l-3,4.75a1.64,1.64,0,0,1-.68.53,1.74,1.74,0,0,1-.67.17,2.47,2.47,0,0,1-1.14-.29c-.8-.44-1.54-.86-2.19-1.25a18.9,18.9,0,0,0-1.94-1,11.59,11.59,0,0,0-2-.66,9.71,9.71,0,0,0-2.25-.24,7.81,7.81,0,0,0-5.51,2.08,10.57,10.57,0,0,0-3,5.75v27.59c0,1.47-.76,2.2-2.28,2.2h-6a2,2,0,0,1-2.27-2.2Zm-54.56,14.75a24.18,24.18,0,0,1,2.28-5.69,23.74,23.74,0,0,1,3.61-4.87,22.65,22.65,0,0,1,4.73-3.78,23,23,0,0,1,5.68-2.44,23.88,23.88,0,0,1,6.46-.86,22.54,22.54,0,0,1,5.48.68,24,24,0,0,1,9.7,4.94,22.14,22.14,0,0,1,3.74,4,21.91,21.91,0,0,1,3.22,6.63,28.47,28.47,0,0,1,1,7.87,14.5,14.5,0,0,1-.09,1.77,2,2,0,0,1-1.55,1.8,8.42,8.42,0,0,1-2.06.2H799.93a12.11,12.11,0,0,0,1.81,4.66,13.89,13.89,0,0,0,3.16,3.44,13.23,13.23,0,0,0,4,2.12,13.59,13.59,0,0,0,4.32.72,14.79,14.79,0,0,0,3.16-.33,16,16,0,0,0,2.84-.88,17,17,0,0,0,2.44-1.26,15.05,15.05,0,0,0,2-1.48s0,0,0,0a4.93,4.93,0,0,1,.84-.64,1.49,1.49,0,0,1,1.59,0,2.74,2.74,0,0,1,.83.73q1,1.22,1.68,2c.46.54.84,1,1.14,1.36a5.14,5.14,0,0,1,.63.95,1.75,1.75,0,0,1,.21.81,2.75,2.75,0,0,1-1.39,2,26.23,26.23,0,0,1-7,4.32,21.86,21.86,0,0,1-8.4,1.58,24,24,0,0,1-9.37-1.87,24.54,24.54,0,0,1-13-12.75,22.76,22.76,0,0,1-2-9.43A24.27,24.27,0,0,1,790.16,333.49Zm-77.4-14.75a1.72,1.72,0,0,1,.93-1.7,5.37,5.37,0,0,1,2.33-.46h3.69a1.86,1.86,0,0,1,1.58.7,4,4,0,0,1,.69,1.54l.41,3.53a18.62,18.62,0,0,1,1.93-2.4,12,12,0,0,1,2.62-2,14.37,14.37,0,0,1,3.55-1.42,19,19,0,0,1,4.74-.53,20.15,20.15,0,0,1,4.65.5,13.57,13.57,0,0,1,6.81,3.85,18.52,18.52,0,0,1,2.44,3.25,11.52,11.52,0,0,1,2.39-3.15A14.71,14.71,0,0,1,755,318a19,19,0,0,1,4.3-1.56,21.08,21.08,0,0,1,4.87-.55,17.44,17.44,0,0,1,7.59,1.57,15.41,15.41,0,0,1,5.47,4.32,18.85,18.85,0,0,1,3.31,6.41,26.51,26.51,0,0,1,1.12,7.83v24.41a2.87,2.87,0,0,1-.62,2,2.33,2.33,0,0,1-1.8.68h-5.56a2.67,2.67,0,0,1-2-.55,3,3,0,0,1-.49-1.94V336a12.86,12.86,0,0,0-.55-3.76A9.14,9.14,0,0,0,769,329a8.66,8.66,0,0,0-2.89-2.26,9.31,9.31,0,0,0-4.15-.86,9.77,9.77,0,0,0-3.74.71,8.51,8.51,0,0,0-3,2.05,9.73,9.73,0,0,0-2,3.22,11.57,11.57,0,0,0-.71,4.18v24.39c0,1.75-.79,2.63-2.38,2.63h-5.6a2.58,2.58,0,0,1-1.94-.55,3.06,3.06,0,0,1-.47-1.94V336a12.91,12.91,0,0,0-.54-3.71,9.62,9.62,0,0,0-1.64-3.24,8.42,8.42,0,0,0-2.87-2.3,9.37,9.37,0,0,0-4.18-.88,9.53,9.53,0,0,0-3.36.64,10.22,10.22,0,0,0-3.06,1.85,9.71,9.71,0,0,0-2.25,3,9.15,9.15,0,0,0-.91,4V360.9a2.06,2.06,0,0,1-.62,1.55,2.16,2.16,0,0,1-1.58.61h-6a2.41,2.41,0,0,1-1.77-.57,2.2,2.2,0,0,1-.57-1.63Zm-78.46,0a1.71,1.71,0,0,1,.94-1.7,5.29,5.29,0,0,1,2.32-.46h3.69a1.85,1.85,0,0,1,1.58.7,4,4,0,0,1,.69,1.54l.41,3.53a18.62,18.62,0,0,1,1.93-2.4,12,12,0,0,1,2.62-2,14.37,14.37,0,0,1,3.55-1.42,19,19,0,0,1,4.74-.53,20.15,20.15,0,0,1,4.65.5,13.57,13.57,0,0,1,6.81,3.85,18.52,18.52,0,0,1,2.44,3.25,11.73,11.73,0,0,1,2.39-3.15,14.71,14.71,0,0,1,3.45-2.45,19,19,0,0,1,4.3-1.56,21.14,21.14,0,0,1,4.87-.55,17.44,17.44,0,0,1,7.59,1.57,15.41,15.41,0,0,1,5.47,4.32,18.85,18.85,0,0,1,3.31,6.41,26.51,26.51,0,0,1,1.12,7.83v24.41a2.87,2.87,0,0,1-.62,2,2.31,2.31,0,0,1-1.79.68h-5.57a2.68,2.68,0,0,1-2-.55,3,3,0,0,1-.49-1.94V336a13.2,13.2,0,0,0-.54-3.76,9.32,9.32,0,0,0-1.71-3.24,8.56,8.56,0,0,0-2.89-2.26,9.31,9.31,0,0,0-4.15-.86,9.81,9.81,0,0,0-3.74.71,8.51,8.51,0,0,0-3,2.05,9.73,9.73,0,0,0-2,3.22,11.79,11.79,0,0,0-.71,4.18v24.39c0,1.75-.79,2.63-2.38,2.63h-5.6a2.58,2.58,0,0,1-1.94-.55,3.06,3.06,0,0,1-.47-1.94V336a12.91,12.91,0,0,0-.54-3.71,9.62,9.62,0,0,0-1.64-3.24,8.42,8.42,0,0,0-2.87-2.3,9.34,9.34,0,0,0-4.18-.88,9.53,9.53,0,0,0-3.36.64A10.22,10.22,0,0,0,648,328.4a9.71,9.71,0,0,0-2.25,3,9.15,9.15,0,0,0-.91,4V360.9a2.06,2.06,0,0,1-.62,1.55,2.16,2.16,0,0,1-1.58.61h-6a2.41,2.41,0,0,1-1.77-.57,2.2,2.2,0,0,1-.57-1.63Zm-55.6,14.73a24,24,0,0,1,11.06-14.34,24.35,24.35,0,0,1,5.72-2.42,24,24,0,0,1,12.74,0,24.06,24.06,0,0,1,10.57,6.15,23.76,23.76,0,0,1,6.2,10.61,24.36,24.36,0,0,1,0,12.83,23.29,23.29,0,0,1-2.43,5.72,24.2,24.2,0,0,1-3.77,4.85,23.34,23.34,0,0,1-4.84,3.75,23.9,23.9,0,0,1-5.73,2.42,24,24,0,0,1-12.74,0,24.35,24.35,0,0,1-5.72-2.42,23.2,23.2,0,0,1-4.86-3.75,24.2,24.2,0,0,1-3.77-4.85,23.29,23.29,0,0,1-2.43-5.72,24.36,24.36,0,0,1,0-12.83Zm-46.07,0a23.66,23.66,0,0,1,2.45-5.75,24.7,24.7,0,0,1,3.78-4.85,25.36,25.36,0,0,1,4.85-3.73,24.49,24.49,0,0,1,5.71-2.41,22.94,22.94,0,0,1,6.31-.86,23.48,23.48,0,0,1,7.69,1.24,23.05,23.05,0,0,1,6.44,3.37l0,0a11.49,11.49,0,0,0,1,.9,1.42,1.42,0,0,1,.5,1.19c0,.14,0,.31,0,.51a1.15,1.15,0,0,1-.2.55l-3,4.57a2,2,0,0,1-1.61,1.1,2.28,2.28,0,0,1-1.39-.62,15.7,15.7,0,0,0-4.35-2.56,13.75,13.75,0,0,0-5.12-1,12.36,12.36,0,0,0-5.36,1.19,14.33,14.33,0,0,0-4.42,3.22,15.57,15.57,0,0,0-3,4.72,15.06,15.06,0,0,0,3,16,14,14,0,0,0,4.41,3.13,12.74,12.74,0,0,0,5.38,1.15,12.45,12.45,0,0,0,5.38-1.08,20.84,20.84,0,0,0,4.13-2.58,3.34,3.34,0,0,1,1-.49,3.52,3.52,0,0,1,.72-.09A1.38,1.38,0,0,1,568,351l.88,1.2,2.59,3.7a2.51,2.51,0,0,1,.29.53,1.25,1.25,0,0,1,.12.49,1.56,1.56,0,0,1-.41,1.05,7.18,7.18,0,0,1-1,.93,29.59,29.59,0,0,1-6.72,3.66,21.84,21.84,0,0,1-7.93,1.39,23.32,23.32,0,0,1-6.31-.86,24.1,24.1,0,0,1-5.71-2.42,24.29,24.29,0,0,1-8.63-8.58,24.05,24.05,0,0,1-2.45-18.55Zm-46.09-23c0-1.17.53-1.75,1.61-1.75h35.27a1.58,1.58,0,0,1,1.36.53,2.13,2.13,0,0,1,.4,1.34v6.46a1.71,1.71,0,0,1-.46,1.18,1.74,1.74,0,0,1-1.37.51h-26v11.09h20.05a1.49,1.49,0,0,1,1.18.31,1.67,1.67,0,0,1,.43,1.3v6.62a2,2,0,0,1-.36,1.18,1.34,1.34,0,0,1-1.17.51H497.33V353h27a1.66,1.66,0,0,1,1.36.44,2.35,2.35,0,0,1,.32,1.36v6.69c0,1-.53,1.54-1.61,1.54H488.15a1.79,1.79,0,0,1-1.14-.37,1.36,1.36,0,0,1-.47-1.17Z" transform="translate(-80 -12.35)"/><path class="cls-3" d="M234.16,162.74a57.62,57.62,0,0,0-12.26-11.17,120.87,120.87,0,0,0-15.3-8.85,167.14,167.14,0,0,0-17.2-7.18q-9-3.19-18.13-5.95-8-2.48-15.24-5A86.11,86.11,0,0,1,143.19,119a30.1,30.1,0,0,1-8.85-7,13.83,13.83,0,0,1-3.27-9.14,19.35,19.35,0,0,1,2.18-9,21.35,21.35,0,0,1,6.38-7.32,32.82,32.82,0,0,1,10.45-4.94,52,52,0,0,1,14.37-1.81,40.06,40.06,0,0,1,12.55,2,71.68,71.68,0,0,1,11.53,4.93,76.49,76.49,0,0,1,16.83,12.34l.29.14a32.13,32.13,0,0,0,3.63,2.54,6.69,6.69,0,0,0,3.48,1,6.06,6.06,0,0,0,3.2-1.31q1.88-1.31,4.2-3.27a54.09,54.09,0,0,0,4.65-4.42L229.3,89v.15l4.36-4.65a13.53,13.53,0,0,0,2.17-3.26,8.21,8.21,0,0,0,.87-3.56,8.34,8.34,0,0,0-2-4.57,38.94,38.94,0,0,0-5-5.51q-3-2.84-6.68-5.59T216,57a105,105,0,0,0-25.25-11.39,92.13,92.13,0,0,0-26.84-4.14,104.72,104.72,0,0,0-31.49,4.43,74.49,74.49,0,0,0-24.09,12.33,53.94,53.94,0,0,0-20.89,43.6,51.47,51.47,0,0,0,4.42,21.7A51.94,51.94,0,0,0,105.1,141a94.2,94.2,0,0,0,22.13,14,230.16,230.16,0,0,0,31,11.61q7.68,2.17,15.3,4.64a76.42,76.42,0,0,1,13.71,5.88,34.07,34.07,0,0,1,9.87,8A16.62,16.62,0,0,1,200.87,196,23.43,23.43,0,0,1,198,207.65a27.33,27.33,0,0,1-8,8.92,38.51,38.51,0,0,1-12,5.73,53,53,0,0,1-14.95,2,43.87,43.87,0,0,1-12.4-2A78.63,78.63,0,0,1,137.31,217a114.07,114.07,0,0,1-13-7.76,95.48,95.48,0,0,1-11.39-9.15h.14l-.58-.58a27.28,27.28,0,0,0-2.9-2.46,6.17,6.17,0,0,0-3.77-1.31,7.08,7.08,0,0,0-3.41,1.31,54.9,54.9,0,0,0-4.57,3.19,63.63,63.63,0,0,0-4.94,4.21q-2.46,2.32-4.64,4.21l-4.79,4.78a17.17,17.17,0,0,0-2.61,3.2,5.8,5.8,0,0,0-.87,3q0,3,3.19,6.68l.29.58v-.15A96.45,96.45,0,0,0,99.66,242a112.34,112.34,0,0,0,19.23,11.53,107.61,107.61,0,0,0,21.18,7.4,96.06,96.06,0,0,0,22.2,2.61,106.1,106.1,0,0,0,32.57-4.86,80.9,80.9,0,0,0,26.41-13.93,65.15,65.15,0,0,0,17.63-21.84,63.06,63.06,0,0,0,6.38-28.58,48.59,48.59,0,0,0-3-17.48A50.7,50.7,0,0,0,234.16,162.74Z" transform="translate(-80 -12.35)"/><path class="cls-3" d="M287.19,12.35H262.82q-8.56,0-8.56,8.74v21.7q0,9.32,8.7,9.32h24.38a7.81,7.81,0,0,0,6.53-3,10.13,10.13,0,0,0,2.32-6.33V21.09c0-2.91-.82-5.1-2.47-6.55A9.46,9.46,0,0,0,287.19,12.35Z" transform="translate(-80 -12.35)"/><path class="cls-3" d="M293.14,79a9.08,9.08,0,0,0-3-1.88,8.83,8.83,0,0,0-3.27-.66H262.82A8,8,0,0,0,256.43,79a9.38,9.38,0,0,0-2.17,6.31V252.05q0,8.7,8.7,8.71h24.09q9.13,0,9.14-8.71V85.33a7.19,7.19,0,0,0-.87-3.48A11.56,11.56,0,0,0,293.14,79Z" transform="translate(-80 -12.35)"/><path class="cls-3" d="M428.76,167.68a74.75,74.75,0,0,0-19.19-12A186.31,186.31,0,0,0,385.09,147q-4.65-1.31-10-2.9a56.23,56.23,0,0,1-9.93-4,27,27,0,0,1-7.53-5.66,11.34,11.34,0,0,1-3-7.91,12.08,12.08,0,0,1,2.4-7.33,22.68,22.68,0,0,1,5.95-5.58,27.3,27.3,0,0,1,7.83-3.49A31.48,31.48,0,0,1,379,109a39.05,39.05,0,0,1,8.85,1,32.21,32.21,0,0,1,7.54,2.75,33.36,33.36,0,0,1,6.68,4.65,64.14,64.14,0,0,1,6.38,6.6c2,2.52,4.11,3.77,6.24,3.77a8.51,8.51,0,0,0,4.36-1.74,59.73,59.73,0,0,0,5.51-4.21q2.89-2.46,5.88-5.08t5.15-4.35c1.93-1.54,2.9-3.19,2.9-4.93a8,8,0,0,0-2.18-5.08A139.12,139.12,0,0,0,424.09,89.4a61.68,61.68,0,0,0-12.84-9.14,59.81,59.81,0,0,0-14.8-5.45A82.8,82.8,0,0,0,378.31,73a84.22,84.22,0,0,0-26.19,3.85,60.73,60.73,0,0,0-20.24,10.81,48.67,48.67,0,0,0-13.06,16.68,49.26,49.26,0,0,0-4.64,21.48,56.41,56.41,0,0,0,3.19,19.29,47.2,47.2,0,0,0,10.09,16.25,66.53,66.53,0,0,0,17.63,13.14,122.12,122.12,0,0,0,26,9.79q6.53,1.89,12.4,3.48a52.45,52.45,0,0,1,10.45,4,21.1,21.1,0,0,1,7.26,6,15.54,15.54,0,0,1,2.68,9.43,14.23,14.23,0,0,1-3.41,9.8,24.87,24.87,0,0,1-8.27,6.09,39.09,39.09,0,0,1-10.37,3.12,62.66,62.66,0,0,1-9.58.87,33.77,33.77,0,0,1-7-1,47.71,47.71,0,0,1-9.28-3.27,52.82,52.82,0,0,1-9.51-5.73,31.31,31.31,0,0,1-7.69-8.27,29.9,29.9,0,0,0-3.48-3.7,5.4,5.4,0,0,0-3.63-1.38,7.86,7.86,0,0,0-3.92,1.31l-16.25,12.48a13.15,13.15,0,0,0-2.54,2.68,5.64,5.64,0,0,0-.94,3.27,13,13,0,0,0,2.18,6.53,57.39,57.39,0,0,0,12.26,15.3,68.79,68.79,0,0,0,16,10.59A78.61,78.61,0,0,0,356.4,262,91.63,91.63,0,0,0,375,264,97.11,97.11,0,0,0,403.17,260a67.9,67.9,0,0,0,22.44-11.32,51.73,51.73,0,0,0,20.17-42.22q0-12.77-4.49-22.27A50.28,50.28,0,0,0,428.76,167.68Z" transform="translate(-80 -12.35)"/><path class="cls-3" d="M521.67,225.21q-8.42,0-12.19-4.21t-3.77-13.81v-19a2.3,2.3,0,0,1,.07-.58,2.36,2.36,0,0,0,.07-.58V159.39q0-5.07-.07-9.44t-.07-9.37V113.05H526.6a7.9,7.9,0,0,0,5.8-2q2-2,2-6.65V84.58c0-2.8-.68-4.84-2-6.14a8,8,0,0,0-5.8-2H505.71q0-9.14.07-18.21t.07-18.21a13.39,13.39,0,0,0-1.38-6.53q-1.38-2.46-5.87-2.46a27.07,27.07,0,0,0-5.81.8q-3.48.79-7.18,2t-7.18,2.39l-5.95,2.1a16.07,16.07,0,0,0-5.59,3,5.89,5.89,0,0,0-1.81,4.57q0,7.7-.07,15.31c-.05,5.07-.08,10.18-.08,15.3H448.25q-4.22,0-6.31,1.74c-1.41,1.15-2.11,3.13-2.11,5.92V105q0,4.35,2.11,6.22t6.31,1.88h16.68v98a48.63,48.63,0,0,0,4.36,21,45.43,45.43,0,0,0,11.82,15.54,52.39,52.39,0,0,0,17.56,9.66,71,71,0,0,0,21.55,3.49,7.32,7.32,0,0,0,8-8V232.61a8.12,8.12,0,0,0-1.74-5.23A5.8,5.8,0,0,0,521.67,225.21Z" transform="translate(-80 -12.35)"/><path class="cls-3" d="M700.28,111.74a87.38,87.38,0,0,0-14.8-15.89,96.9,96.9,0,0,0-18.06-12A95.59,95.59,0,0,0,647,76.27a89.37,89.37,0,0,0-21.76-2.69A94.18,94.18,0,0,0,599.66,77a90.46,90.46,0,0,0-41.28,24.67A93.8,93.8,0,0,0,544.09,121a97.45,97.45,0,0,0-12.27,47.52,90.34,90.34,0,0,0,7.77,37.37,97.18,97.18,0,0,0,51.72,50.56,94.58,94.58,0,0,0,37.15,7.4,86.69,86.69,0,0,0,33.3-6.24,103.22,103.22,0,0,0,27.93-17.12q5.52-4,5.51-8.12a7.14,7.14,0,0,0-.8-3.2,21.8,21.8,0,0,0-2.54-3.77q-1.74-2.17-4.49-5.37c-1.84-2.12-4.06-4.79-6.68-8a10.47,10.47,0,0,0-3.26-2.9,6.6,6.6,0,0,0-3-.87,6.51,6.51,0,0,0-3.33.94,20.38,20.38,0,0,0-3.34,2.54.13.13,0,0,0-.15.15,56.38,56.38,0,0,1-7.76,5.87,61.74,61.74,0,0,1-9.65,5A65,65,0,0,1,639,226.22a59.16,59.16,0,0,1-12.55,1.31,54.4,54.4,0,0,1-17.12-2.83,53,53,0,0,1-15.82-8.42,55.4,55.4,0,0,1-12.55-13.64,49,49,0,0,1-7.18-18.5h128.7a32.4,32.4,0,0,0,8.13-.79,8.41,8.41,0,0,0,4.35-2.54,8.76,8.76,0,0,0,1.81-4.57,57.3,57.3,0,0,0,.36-7,112.69,112.69,0,0,0-4.06-31.2A85.86,85.86,0,0,0,700.28,111.74ZM574.63,149.47A51.24,51.24,0,0,1,582,133.8a58.16,58.16,0,0,1,11.75-12.63,56.45,56.45,0,0,1,14.87-8.49,46.41,46.41,0,0,1,16.69-3.12,56.85,56.85,0,0,1,18.42,2.91,49.92,49.92,0,0,1,15.24,8.2,51.49,51.49,0,0,1,11.39,12.62,56,56,0,0,1,7,16.18Z" transform="translate(-80 -12.35)"/><path class="cls-3" d="M858.72,101c.2-.87.34-1.69.44-2.46a6.94,6.94,0,0,0-1.81-4.79,21.44,21.44,0,0,0-4.28-3.63q-5.8-4.2-10.88-7.32a58.54,58.54,0,0,0-10.38-5.08,59.9,59.9,0,0,0-11.1-2.91,83,83,0,0,0-13.06-.94,47.94,47.94,0,0,0-14.51,2,46.7,46.7,0,0,0-11.46,5.37,49.71,49.71,0,0,0-9.07,7.62,85.07,85.07,0,0,0-7.19,8.78q-.58-3-1-6.75A36.64,36.64,0,0,0,762.94,84,15,15,0,0,0,760,78.66a6.94,6.94,0,0,0-5.53-2.18H736a10,10,0,0,0-6.19,2.18A7.53,7.53,0,0,0,727,85v167q0,8.7,9,8.71h23.87q9,0,9-8.71V142.65q3-14.51,12-22.78a30.92,30.92,0,0,1,21.84-8.27,38.77,38.77,0,0,1,8.92.94,44.92,44.92,0,0,1,7.77,2.61,77.67,77.67,0,0,1,7.69,4c2.6,1.55,5.51,3.19,8.7,4.93a9.37,9.37,0,0,0,4.5,1.16,7.32,7.32,0,0,0,5.37-2.75l11.89-18.86A7.54,7.54,0,0,0,858.72,101Z" transform="translate(-80 -12.35)"/><path class="cls-3" d="M983.51,184.22A50.28,50.28,0,0,0,971,167.68a74.64,74.64,0,0,0-19.2-12A185.28,185.28,0,0,0,927.3,147q-4.63-1.31-10-2.9a55.93,55.93,0,0,1-9.93-4,27,27,0,0,1-7.53-5.66,11.34,11.34,0,0,1-3-7.91,12.14,12.14,0,0,1,2.39-7.33,22.84,22.84,0,0,1,6-5.58,27.36,27.36,0,0,1,7.84-3.49,31.42,31.42,0,0,1,8.2-1.16,39.05,39.05,0,0,1,8.85,1,32.37,32.37,0,0,1,7.54,2.75,33.65,33.65,0,0,1,6.68,4.65,65.21,65.21,0,0,1,6.38,6.6c2,2.52,4.11,3.77,6.24,3.77A8.46,8.46,0,0,0,961.3,126a59.78,59.78,0,0,0,5.52-4.21q2.89-2.46,5.87-5.08t5.15-4.35c1.94-1.54,2.91-3.19,2.91-4.93a8,8,0,0,0-2.18-5.08A139.12,139.12,0,0,0,966.31,89.4a61.94,61.94,0,0,0-12.84-9.14,59.81,59.81,0,0,0-14.8-5.45A82.8,82.8,0,0,0,920.53,73a84.13,84.13,0,0,0-26.19,3.85A60.73,60.73,0,0,0,874.1,87.66a48.2,48.2,0,0,0-17.7,38.16,56.41,56.41,0,0,0,3.19,19.29,47.2,47.2,0,0,0,10.09,16.25A66.63,66.63,0,0,0,887.3,174.5a122.42,122.42,0,0,0,26,9.79q6.53,1.89,12.4,3.48a52.45,52.45,0,0,1,10.45,4,21,21,0,0,1,7.25,6,15.48,15.48,0,0,1,2.69,9.43,14.23,14.23,0,0,1-3.41,9.8,25,25,0,0,1-8.27,6.09A39,39,0,0,1,924,226.22a62.54,62.54,0,0,1-9.57.87,33.77,33.77,0,0,1-7-1,47.79,47.79,0,0,1-9.29-3.27,52.75,52.75,0,0,1-9.5-5.73,31.15,31.15,0,0,1-7.69-8.27,29.9,29.9,0,0,0-3.48-3.7,5.42,5.42,0,0,0-3.63-1.38,7.83,7.83,0,0,0-3.92,1.31l-16.25,12.48a13.15,13.15,0,0,0-2.54,2.68,5.64,5.64,0,0,0-.94,3.27,13,13,0,0,0,2.18,6.53,57.19,57.19,0,0,0,12.26,15.3,68.79,68.79,0,0,0,16,10.59,78.61,78.61,0,0,0,18.06,6.1,91.61,91.61,0,0,0,18.57,2,97.13,97.13,0,0,0,28.2-3.92,68.09,68.09,0,0,0,22.44-11.32,52.62,52.62,0,0,0,14.82-18.06A53.22,53.22,0,0,0,988,206.49Q988,193.72,983.51,184.22Z" transform="translate(-80 -12.35)"/><path class="cls-2" d="M151.52,316.6a27.54,27.54,0,0,0-8.78-5.78,27.87,27.87,0,0,0-10.85-2.1H114.31a1.5,1.5,0,0,0-1.69,1.71v51.09c0,.64.17,1.05.51,1.24a2.33,2.33,0,0,0,1.18.3h17.58a28.28,28.28,0,0,0,14-3.64,26.75,26.75,0,0,0,9.89-9.66,27.22,27.22,0,0,0,2.79-6.52,27.58,27.58,0,0,0-1.16-18A27,27,0,0,0,151.52,316.6Zm-3.82,25.75a16.64,16.64,0,0,1-3.52,5.41,17.1,17.1,0,0,1-5.32,3.68,17.6,17.6,0,0,1-6.7,1.48c-1.83.07-3.66.11-5.49.11H123.2V318.74h8.31a18.56,18.56,0,0,1,6.76,1.23,16.94,16.94,0,0,1,5.57,3.46,16.33,16.33,0,0,1,3.75,5.37,17.1,17.1,0,0,1,1.37,6.9A17.45,17.45,0,0,1,147.7,342.35Z" transform="translate(-80 -12.35)"/><path class="cls-2" d="M178.49,317.22a2.44,2.44,0,0,0-.75-.47,2.23,2.23,0,0,0-.82-.17h-6.08a2,2,0,0,0-1.61.64,2.41,2.41,0,0,0-.55,1.6v42a2,2,0,0,0,2.2,2.2H177c1.54,0,2.31-.73,2.31-2.2v-42a1.77,1.77,0,0,0-.22-.88A3,3,0,0,0,178.49,317.22Z" transform="translate(-80 -12.35)"/><path class="cls-2" d="M177,300.41h-6.15a1.93,1.93,0,0,0-2.16,2.2v5.48c0,1.56.74,2.34,2.2,2.34H177a2,2,0,0,0,1.64-.75,2.55,2.55,0,0,0,.59-1.59v-5.48a2.11,2.11,0,0,0-.62-1.65A2.4,2.4,0,0,0,177,300.41Z" transform="translate(-80 -12.35)"/><path class="cls-2" d="M235.1,316.51l-2.39,0-2.4,0a1.87,1.87,0,0,0-1.59.57,4.05,4.05,0,0,0-.64,1.59c-.08.66-.16,1.31-.24,1.94s-.18,1.28-.28,1.94a23.27,23.27,0,0,0-2.89-2.71,19.8,19.8,0,0,0-3.38-2.16,18.25,18.25,0,0,0-3.88-1.4,18.91,18.91,0,0,0-4.41-.5,23,23,0,0,0-6.31.86,23.33,23.33,0,0,0-5.62,2.42,22.39,22.39,0,0,0-4.72,3.75,23.94,23.94,0,0,0-3.64,4.85,23.63,23.63,0,0,0-2.34,5.72,24.86,24.86,0,0,0,0,12.74,23,23,0,0,0,6,10.35,22.58,22.58,0,0,0,10.34,5.93,24.2,24.2,0,0,0,6.31.81,17.18,17.18,0,0,0,4.35-.52,17.73,17.73,0,0,0,3.74-1.4,19,19,0,0,0,3.2-2.11,28.64,28.64,0,0,0,2.8-2.6c-.05.52-.07,1.07-.07,1.67a5.86,5.86,0,0,1-.19,1.55,9.09,9.09,0,0,1-1.44,4.18,11.62,11.62,0,0,1-3.15,3.18,14.59,14.59,0,0,1-4.39,2,19.17,19.17,0,0,1-5.18.7,24.06,24.06,0,0,1-2.51-.15,20.19,20.19,0,0,1-5.52-1.37,7.68,7.68,0,0,1-2.18-1.3,2.17,2.17,0,0,0-.79-.44,6,6,0,0,0-.67-.15,1.18,1.18,0,0,0-.73.24,4.73,4.73,0,0,0-.74.71l-2.74,4a2.05,2.05,0,0,0-.37.72,2.52,2.52,0,0,0-.07.6,1.72,1.72,0,0,0,.31,1.05,3,3,0,0,0,.79.71,20.49,20.49,0,0,0,3.33,2.1,26,26,0,0,0,3.84,1.58,29.77,29.77,0,0,0,4.12,1,24.68,24.68,0,0,0,4.19.35,30.24,30.24,0,0,0,9.35-1.42,22,22,0,0,0,7.74-4.34,20.62,20.62,0,0,0,5.27-7.32A25.75,25.75,0,0,0,237.23,356V318.63a2,2,0,0,0-.65-1.53A2.12,2.12,0,0,0,235.1,316.51ZM227.53,340a14.5,14.5,0,0,1-1.19,5.42,14.74,14.74,0,0,1-3,4.48,14.36,14.36,0,0,1-4.47,3.05,13.21,13.21,0,0,1-5.45,1.14A12.76,12.76,0,0,1,208,353a13.87,13.87,0,0,1-4.3-3.13,14.54,14.54,0,0,1-2.85-4.6,15.47,15.47,0,0,1,0-11.05,14.61,14.61,0,0,1,2.85-4.59,13.87,13.87,0,0,1,4.3-3.13,12.61,12.61,0,0,1,5.4-1.15,13.37,13.37,0,0,1,5.45,1.13,14.28,14.28,0,0,1,4.47,3.08,14.83,14.83,0,0,1,3,4.5,14.44,14.44,0,0,1,1.19,5.41Z" transform="translate(-80 -12.35)"/><path class="cls-2" d="M256.55,300.41H250.4a1.93,1.93,0,0,0-2.16,2.2v5.48q0,2.34,2.19,2.34h6.15a2,2,0,0,0,1.65-.75,2.54,2.54,0,0,0,.58-1.59v-5.48a2.08,2.08,0,0,0-.62-1.65A2.36,2.36,0,0,0,256.55,300.41Z" transform="translate(-80 -12.35)"/><path class="cls-2" d="M258.05,317.22a2.48,2.48,0,0,0-.76-.47,2.23,2.23,0,0,0-.82-.17H250.4a2,2,0,0,0-1.61.64,2.36,2.36,0,0,0-.55,1.6v42a1.94,1.94,0,0,0,2.19,2.2h6.08c1.54,0,2.3-.73,2.3-2.2v-42a1.77,1.77,0,0,0-.22-.88A2.72,2.72,0,0,0,258.05,317.22Z" transform="translate(-80 -12.35)"/><path class="cls-2" d="M289,316.58h-5.27c0-1.53,0-3.07,0-4.59s0-3.05,0-4.59a3.42,3.42,0,0,0-.35-1.65,1.56,1.56,0,0,0-1.48-.62,7.14,7.14,0,0,0-1.47.2c-.58.13-1.19.3-1.81.49s-1.22.4-1.81.61l-1.5.53a4.16,4.16,0,0,0-1.41.75,1.49,1.49,0,0,0-.45,1.15c0,1.3,0,2.58,0,3.86s0,2.57,0,3.86h-4.21a2.45,2.45,0,0,0-1.59.44,1.82,1.82,0,0,0-.53,1.5v5.24a2,2,0,0,0,.53,1.57,2.29,2.29,0,0,0,1.59.47h4.21v24.73a12.12,12.12,0,0,0,1.1,5.29,11.38,11.38,0,0,0,3,3.92,13,13,0,0,0,4.43,2.44,18.06,18.06,0,0,0,5.43.88,1.84,1.84,0,0,0,2-2V356a2,2,0,0,0-.44-1.32,1.46,1.46,0,0,0-1.2-.55,4,4,0,0,1-3.08-1.06,5.19,5.19,0,0,1-1-3.48v-4.8a.77.77,0,0,1,0-.15.78.78,0,0,0,0-.14v-7c0-.85,0-1.65,0-2.38s0-1.52,0-2.36V325.8H289a2.06,2.06,0,0,0,1.47-.5,2.33,2.33,0,0,0,.51-1.68v-5a1.77,1.77,0,0,0-2-2Z" transform="translate(-80 -12.35)"/><path class="cls-2" d="M343.9,316.93a4.4,4.4,0,0,0-1.06-.35,6.82,6.82,0,0,0-1.18-.11H338a3.37,3.37,0,0,0-.91.1,1.19,1.19,0,0,0-.61.34,2.3,2.3,0,0,0-.4.68,11,11,0,0,0-.34,1.08l-.52,3.91a21.3,21.3,0,0,0-2.85-2.76,18.29,18.29,0,0,0-3.42-2.16,19.4,19.4,0,0,0-4-1.39,19.69,19.69,0,0,0-4.47-.49,23.12,23.12,0,0,0-6.35.86,24.75,24.75,0,0,0-5.72,2.41,24,24,0,0,0-8.59,8.58,24.79,24.79,0,0,0-2.41,5.75,24.28,24.28,0,0,0,0,12.81,24.53,24.53,0,0,0,2.41,5.74,23.9,23.9,0,0,0,3.74,4.87,23.29,23.29,0,0,0,4.85,3.75,24.77,24.77,0,0,0,5.72,2.42,23.51,23.51,0,0,0,6.35.86,18.9,18.9,0,0,0,4.14-.46,19.51,19.51,0,0,0,3.8-1.28,20.47,20.47,0,0,0,3.35-1.94,23.05,23.05,0,0,0,2.84-2.4l.22,3.11a4.12,4.12,0,0,0,.67,1.57,1.89,1.89,0,0,0,1.63.63h4.58a7.66,7.66,0,0,0,1.19-.09,3.1,3.1,0,0,0,1-.33,2.07,2.07,0,0,0,.72-.66,2,2,0,0,0,.27-1.08V318.63a1.89,1.89,0,0,0-.27-1A2,2,0,0,0,343.9,316.93Zm-10.43,28.4a15,15,0,0,1-3,4.59,14.23,14.23,0,0,1-4.49,3.13,13.38,13.38,0,0,1-5.54,1.15,12.61,12.61,0,0,1-5.4-1.15,13.64,13.64,0,0,1-4.3-3.13,14.43,14.43,0,0,1-2.85-4.59,15.33,15.33,0,0,1,0-11.05,14.37,14.37,0,0,1,2.85-4.6,14,14,0,0,1,4.3-3.14,12.47,12.47,0,0,1,5.4-1.17,13.23,13.23,0,0,1,5.54,1.17,14.58,14.58,0,0,1,4.49,3.14,14.94,14.94,0,0,1,3,4.6,14.55,14.55,0,0,1,0,11.05Z" transform="translate(-80 -12.35)"/><path class="cls-2" d="M363,302.79h-6.41a1.89,1.89,0,0,0-1.57.62,2.39,2.39,0,0,0-.51,1.57v55.88a2.41,2.41,0,0,0,.49,1.65,2.17,2.17,0,0,0,1.67.55h6.11a2.38,2.38,0,0,0,1.63-.55,2.14,2.14,0,0,0,.6-1.65V305a2.12,2.12,0,0,0-.64-1.57A1.94,1.94,0,0,0,363,302.79Z" transform="translate(-80 -12.35)"/><path class="cls-2" d="M452.83,336l-3.11-.7a3.69,3.69,0,0,1-1.2-.22,4.17,4.17,0,0,0-1.36-.22,1.87,1.87,0,0,0-1.22.44,1.62,1.62,0,0,0-.61,1.13,5.26,5.26,0,0,1-1.64,2.38,4.08,4.08,0,0,1-2.71,1,3.59,3.59,0,0,1-.84-.11l-16.32-3.58h0a.6.6,0,0,0-.25-.06l-.3,0a1.61,1.61,0,0,0-1.2.48,2.48,2.48,0,0,0-.66,1.2l-.48,2.09a12.85,12.85,0,0,1-.44,1.81,6.07,6.07,0,0,0-.29,1.78,1.79,1.79,0,0,0,.42,1.17,2.07,2.07,0,0,0,1.15.69l4,1a8.38,8.38,0,0,1-.95,3.4,8,8,0,0,1-2.07,2.45,8.81,8.81,0,0,1-2.85,1.49,11.38,11.38,0,0,1-3.28.49,9.79,9.79,0,0,1-3.9-.73,9.12,9.12,0,0,1-2.89-1.94,8,8,0,0,1-1.79-2.78,9,9,0,0,1-.61-3.22,10.34,10.34,0,0,1,.43-3.06,6.4,6.4,0,0,1,1.33-2.45,6.12,6.12,0,0,1,2.34-1.63,9.06,9.06,0,0,1,3.44-.59,2,2,0,0,0,1.23-.36,1.75,1.75,0,0,0,.6-1.28l.95-4.69a.9.9,0,0,1,0-.18.65.65,0,0,0,0-.11V331c0-1-.57-1.58-1.72-1.75a5.7,5.7,0,0,1-2.54-1,7.35,7.35,0,0,1-1.71-1.67,6.87,6.87,0,0,1-.95-1.84,5.56,5.56,0,0,1-.29-1.52,7.33,7.33,0,0,1,.29-2,5.1,5.1,0,0,1,1-1.83,5.3,5.3,0,0,1,1.8-1.35,6.07,6.07,0,0,1,2.7-.53,5.39,5.39,0,0,1,4.21,1.5,5.74,5.74,0,0,1,1.35,4,1.76,1.76,0,0,0,.54,1.39,2,2,0,0,0,1.44.47h1.32c.22,0,.44,0,.66,0h3.18a2.06,2.06,0,0,0,1.43-.5,2,2,0,0,0,.55-1.52,15.82,15.82,0,0,0-1.23-6.51,12.8,12.8,0,0,0-3.31-4.54,13.42,13.42,0,0,0-4.81-2.63,19.37,19.37,0,0,0-5.73-.84,15.46,15.46,0,0,0-5.78,1.09,15.78,15.78,0,0,0-4.83,3,14.59,14.59,0,0,0-3.33,4.56,13.21,13.21,0,0,0-1.25,5.71,13.51,13.51,0,0,0,1.06,5.49,12.71,12.71,0,0,0,3,4.17,19.18,19.18,0,0,0-3.15,2.49,14.67,14.67,0,0,0-2.45,3.13,14.85,14.85,0,0,0-1.59,3.87,18.44,18.44,0,0,0-.57,4.74,15.59,15.59,0,0,0,1.54,6.94,16.66,16.66,0,0,0,4.15,5.43,19.18,19.18,0,0,0,6.09,3.55,21,21,0,0,0,7.36,1.28A30.84,30.84,0,0,0,423,363a17.76,17.76,0,0,0,6-2.49,14.77,14.77,0,0,0,4.49-4.7,17.5,17.5,0,0,0,2.29-7.37l3,.66c.34.07.73.14,1.17.2a9.4,9.4,0,0,0,1.28.09,13.07,13.07,0,0,0,4.52-.79,13.33,13.33,0,0,0,3.93-2.21,14,14,0,0,0,3-3.42,13.58,13.58,0,0,0,1.78-4.41,1.68,1.68,0,0,0,.07-.52,2.2,2.2,0,0,0-.48-1.33A1.63,1.63,0,0,0,452.83,336Z" transform="translate(-80 -12.35)"/><path class="cls-4" d="M488.15,363.06h36.22c1.08,0,1.61-.52,1.61-1.54v-6.69a2.35,2.35,0,0,0-.32-1.36,1.66,1.66,0,0,0-1.36-.44h-27V339.75h20.13a1.34,1.34,0,0,0,1.17-.51,2,2,0,0,0,.36-1.18v-6.62a1.67,1.67,0,0,0-.43-1.3,1.49,1.49,0,0,0-1.18-.31H497.33V318.74h26a1.74,1.74,0,0,0,1.37-.51,1.71,1.71,0,0,0,.46-1.18v-6.46a2.13,2.13,0,0,0-.4-1.34,1.58,1.58,0,0,0-1.36-.53H488.15c-1.08,0-1.61.58-1.61,1.75v51a1.36,1.36,0,0,0,.47,1.17A1.79,1.79,0,0,0,488.15,363.06Z" transform="translate(-80 -12.35)"/><path class="cls-4" d="M535.08,352a24.29,24.29,0,0,0,8.63,8.58,24.1,24.1,0,0,0,5.71,2.42,23.32,23.32,0,0,0,6.31.86,21.84,21.84,0,0,0,7.93-1.39,29.59,29.59,0,0,0,6.72-3.66,7.18,7.18,0,0,0,1-.93,1.56,1.56,0,0,0,.41-1.05,1.25,1.25,0,0,0-.12-.49,2.51,2.51,0,0,0-.29-.53l-2.59-3.7L568,351a1.38,1.38,0,0,0-1.06-.66,3.52,3.52,0,0,0-.72.09,3.34,3.34,0,0,0-1,.49,20.84,20.84,0,0,1-4.13,2.58,12.45,12.45,0,0,1-5.38,1.08,12.74,12.74,0,0,1-5.38-1.15,14,14,0,0,1-4.41-3.13,15.19,15.19,0,0,1-3-16,15.57,15.57,0,0,1,3-4.72,14.33,14.33,0,0,1,4.42-3.22,12.36,12.36,0,0,1,5.36-1.19,13.75,13.75,0,0,1,5.12,1,15.7,15.7,0,0,1,4.35,2.56,2.28,2.28,0,0,0,1.39.62,2,2,0,0,0,1.61-1.1l3-4.57a1.15,1.15,0,0,0,.2-.55c0-.2,0-.37,0-.51a1.42,1.42,0,0,0-.5-1.19,11.49,11.49,0,0,1-1-.9l0,0a23.05,23.05,0,0,0-6.44-3.37,23.48,23.48,0,0,0-7.69-1.24,22.94,22.94,0,0,0-6.31.86,24.49,24.49,0,0,0-5.71,2.41,25.36,25.36,0,0,0-4.85,3.73,24.7,24.7,0,0,0-3.78,4.85,23.66,23.66,0,0,0-2.45,5.75A23.83,23.83,0,0,0,535.08,352Z" transform="translate(-80 -12.35)"/><path class="cls-4" d="M581.13,352a24.2,24.2,0,0,0,3.77,4.85,23.2,23.2,0,0,0,4.86,3.75,24.35,24.35,0,0,0,5.72,2.42,24,24,0,0,0,12.74,0,23.9,23.9,0,0,0,5.73-2.42,23.34,23.34,0,0,0,4.84-3.75,24.2,24.2,0,0,0,3.77-4.85A23.29,23.29,0,0,0,625,346.3a24.05,24.05,0,0,0-16.77-29.59,24,24,0,0,0-12.74,0,24.35,24.35,0,0,0-5.72,2.42A24.09,24.09,0,0,0,578.7,346.3,23.29,23.29,0,0,0,581.13,352Zm8-17.65a14.71,14.71,0,0,1,2.86-4.63,13.84,13.84,0,0,1,4.33-3.18,12.51,12.51,0,0,1,5.47-1.19,12.14,12.14,0,0,1,5.37,1.19,13.67,13.67,0,0,1,4.26,3.18,14.74,14.74,0,0,1,2.8,4.63,15.67,15.67,0,0,1,0,11.07,14.14,14.14,0,0,1-2.8,4.55,13.38,13.38,0,0,1-4.26,3.08,12.83,12.83,0,0,1-5.37,1.13,13.22,13.22,0,0,1-5.47-1.13A13.56,13.56,0,0,1,592,350a14.12,14.12,0,0,1-2.86-4.55,15.53,15.53,0,0,1,0-11.07Z" transform="translate(-80 -12.35)"/><path class="cls-4" d="M636.64,363.06h6a2.16,2.16,0,0,0,1.58-.61,2.06,2.06,0,0,0,.62-1.55V335.35a9.15,9.15,0,0,1,.91-4,9.71,9.71,0,0,1,2.25-3,10.22,10.22,0,0,1,3.06-1.85,9.53,9.53,0,0,1,3.36-.64,9.34,9.34,0,0,1,4.18.88,8.42,8.42,0,0,1,2.87,2.3,9.62,9.62,0,0,1,1.64,3.24,12.91,12.91,0,0,1,.54,3.71v24.53a3.06,3.06,0,0,0,.47,1.94,2.58,2.58,0,0,0,1.94.55h5.6c1.59,0,2.38-.88,2.38-2.63V336a11.79,11.79,0,0,1,.71-4.18,9.73,9.73,0,0,1,2-3.22,8.51,8.51,0,0,1,3-2.05,9.81,9.81,0,0,1,3.74-.71,9.31,9.31,0,0,1,4.15.86,8.56,8.56,0,0,1,2.89,2.26,9.32,9.32,0,0,1,1.71,3.24,13.2,13.2,0,0,1,.54,3.76v24.57a3,3,0,0,0,.49,1.94,2.68,2.68,0,0,0,2,.55h5.57a2.31,2.31,0,0,0,1.79-.68,2.87,2.87,0,0,0,.62-2V336a26.51,26.51,0,0,0-1.12-7.83,18.85,18.85,0,0,0-3.31-6.41,15.41,15.41,0,0,0-5.47-4.32,17.44,17.44,0,0,0-7.59-1.57,21.14,21.14,0,0,0-4.87.55,19,19,0,0,0-4.3,1.56,14.71,14.71,0,0,0-3.45,2.45,11.73,11.73,0,0,0-2.39,3.15,18.52,18.52,0,0,0-2.44-3.25,13.57,13.57,0,0,0-6.81-3.85,20.15,20.15,0,0,0-4.65-.5,19,19,0,0,0-4.74.53,14.37,14.37,0,0,0-3.55,1.42,12,12,0,0,0-2.62,2,18.62,18.62,0,0,0-1.93,2.4l-.41-3.53a4,4,0,0,0-.69-1.54,1.85,1.85,0,0,0-1.58-.7h-3.69a5.29,5.29,0,0,0-2.32.46,1.71,1.71,0,0,0-.94,1.7v42.12a2.2,2.2,0,0,0,.57,1.63A2.41,2.41,0,0,0,636.64,363.06Z" transform="translate(-80 -12.35)"/><path class="cls-4" d="M715.1,363.06h6a2.16,2.16,0,0,0,1.58-.61,2.06,2.06,0,0,0,.62-1.55V335.35a9.15,9.15,0,0,1,.91-4,9.71,9.71,0,0,1,2.25-3,10.22,10.22,0,0,1,3.06-1.85,9.53,9.53,0,0,1,3.36-.64,9.37,9.37,0,0,1,4.18.88,8.42,8.42,0,0,1,2.87,2.3,9.62,9.62,0,0,1,1.64,3.24,12.91,12.91,0,0,1,.54,3.71v24.53a3.06,3.06,0,0,0,.47,1.94,2.58,2.58,0,0,0,1.94.55h5.6c1.59,0,2.38-.88,2.38-2.63V336a11.57,11.57,0,0,1,.71-4.18,9.73,9.73,0,0,1,2-3.22,8.51,8.51,0,0,1,3-2.05,9.77,9.77,0,0,1,3.74-.71,9.31,9.31,0,0,1,4.15.86A8.66,8.66,0,0,1,769,329a9.14,9.14,0,0,1,1.7,3.24,12.86,12.86,0,0,1,.55,3.76v24.57a3,3,0,0,0,.49,1.94,2.67,2.67,0,0,0,2,.55h5.56a2.33,2.33,0,0,0,1.8-.68,2.87,2.87,0,0,0,.62-2V336a26.51,26.51,0,0,0-1.12-7.83,18.85,18.85,0,0,0-3.31-6.41,15.41,15.41,0,0,0-5.47-4.32,17.44,17.44,0,0,0-7.59-1.57,21.08,21.08,0,0,0-4.87.55A19,19,0,0,0,755,318a14.71,14.71,0,0,0-3.45,2.45,11.52,11.52,0,0,0-2.39,3.15,18.52,18.52,0,0,0-2.44-3.25,13.57,13.57,0,0,0-6.81-3.85,20.15,20.15,0,0,0-4.65-.5,19,19,0,0,0-4.74.53,14.37,14.37,0,0,0-3.55,1.42,12,12,0,0,0-2.62,2,18.62,18.62,0,0,0-1.93,2.4l-.41-3.53a4,4,0,0,0-.69-1.54,1.86,1.86,0,0,0-1.58-.7H716a5.37,5.37,0,0,0-2.33.46,1.72,1.72,0,0,0-.93,1.7v42.12a2.2,2.2,0,0,0,.57,1.63A2.41,2.41,0,0,0,715.1,363.06Z" transform="translate(-80 -12.35)"/><path class="cls-4" d="M796.6,356.84a24.51,24.51,0,0,0,7.75,5.12,24,24,0,0,0,9.37,1.87,21.86,21.86,0,0,0,8.4-1.58,26.23,26.23,0,0,0,7-4.32,2.75,2.75,0,0,0,1.39-2,1.75,1.75,0,0,0-.21-.81,5.14,5.14,0,0,0-.63-.95c-.3-.37-.68-.82-1.14-1.36s-1-1.2-1.68-2a2.74,2.74,0,0,0-.83-.73,1.49,1.49,0,0,0-1.59,0,4.93,4.93,0,0,0-.84.64s0,0,0,0a15.05,15.05,0,0,1-2,1.48,17,17,0,0,1-2.44,1.26,16,16,0,0,1-2.84.88,14.79,14.79,0,0,1-3.16.33,13.59,13.59,0,0,1-4.32-.72,13.23,13.23,0,0,1-4-2.12,13.89,13.89,0,0,1-3.16-3.44,12.11,12.11,0,0,1-1.81-4.66h32.45a8.42,8.42,0,0,0,2.06-.2,2,2,0,0,0,1.55-1.8,14.5,14.5,0,0,0,.09-1.77,28.47,28.47,0,0,0-1-7.87,21.91,21.91,0,0,0-3.22-6.63,22.14,22.14,0,0,0-3.74-4,24,24,0,0,0-9.7-4.94,22.54,22.54,0,0,0-5.48-.68,23.88,23.88,0,0,0-6.46.86,23,23,0,0,0-5.68,2.44,22.65,22.65,0,0,0-4.73,3.78,23.74,23.74,0,0,0-3.61,4.87,24.71,24.71,0,0,0-3.09,12,22.76,22.76,0,0,0,2,9.43A24.62,24.62,0,0,0,796.6,356.84ZM802,331a15,15,0,0,1,3-3.19,14.2,14.2,0,0,1,3.75-2.14,11.76,11.76,0,0,1,4.21-.78,14.28,14.28,0,0,1,4.64.73,12.73,12.73,0,0,1,3.85,2.07,13,13,0,0,1,2.87,3.18,14.1,14.1,0,0,1,1.77,4.08h-25.9A13.06,13.06,0,0,1,802,331Z" transform="translate(-80 -12.35)"/><path class="cls-4" d="M847,363.06h6c1.52,0,2.28-.73,2.28-2.2V333.27a10.57,10.57,0,0,1,3-5.75,7.81,7.81,0,0,1,5.51-2.08,9.71,9.71,0,0,1,2.25.24,11.59,11.59,0,0,1,2,.66,18.9,18.9,0,0,1,1.94,1c.65.39,1.39.81,2.19,1.25a2.47,2.47,0,0,0,1.14.29,1.74,1.74,0,0,0,.67-.17,1.64,1.64,0,0,0,.68-.53l3-4.75a1.74,1.74,0,0,0,.29-.66,5.43,5.43,0,0,0,.11-.62,1.76,1.76,0,0,0-.45-1.21,5.7,5.7,0,0,0-1.08-.92c-1-.7-1.89-1.32-2.75-1.85a15,15,0,0,0-2.61-1.28,16,16,0,0,0-2.8-.73,20.6,20.6,0,0,0-3.3-.24,12.16,12.16,0,0,0-3.66.52,11.82,11.82,0,0,0-2.89,1.35,12.47,12.47,0,0,0-2.28,1.92,20.58,20.58,0,0,0-1.82,2.22c-.1-.52-.18-1.08-.26-1.71a9,9,0,0,0-.36-1.73,3.94,3.94,0,0,0-.74-1.36,1.76,1.76,0,0,0-1.39-.55H847a2.56,2.56,0,0,0-1.56.55,1.89,1.89,0,0,0-.71,1.61v42.12A2,2,0,0,0,847,363.06Z" transform="translate(-80 -12.35)"/><path class="cls-4" d="M885.9,352a24.46,24.46,0,0,0,3.79,4.85A24.25,24.25,0,0,0,900.25,363a23.27,23.27,0,0,0,6.31.86,21.74,21.74,0,0,0,7.92-1.39,29.38,29.38,0,0,0,6.72-3.66,6.81,6.81,0,0,0,1.06-.93,1.55,1.55,0,0,0,.4-1.05,1.22,1.22,0,0,0-.11-.49,2.51,2.51,0,0,0-.29-.53l-2.6-3.7-.88-1.2a1.35,1.35,0,0,0-1.06-.66,3.51,3.51,0,0,0-.71.09,3.37,3.37,0,0,0-1,.49,20.84,20.84,0,0,1-4.13,2.58,12.41,12.41,0,0,1-5.38,1.08,12.81,12.81,0,0,1-5.38-1.15,14.22,14.22,0,0,1-4.41-3.13,15.15,15.15,0,0,1-3-16,15.2,15.2,0,0,1,3-4.72,14.41,14.41,0,0,1,4.41-3.22,12.39,12.39,0,0,1,5.36-1.19,13.72,13.72,0,0,1,5.12,1,15.76,15.76,0,0,1,4.36,2.56,2.26,2.26,0,0,0,1.39.62,2,2,0,0,0,1.61-1.1l3-4.57a1.06,1.06,0,0,0,.2-.55c0-.2,0-.37,0-.51a1.44,1.44,0,0,0-.49-1.19,11.49,11.49,0,0,1-1-.9l0,0a22.85,22.85,0,0,0-6.43-3.37,23.52,23.52,0,0,0-7.69-1.24,22.88,22.88,0,0,0-6.31.86,24.31,24.31,0,0,0-5.71,2.41,24.43,24.43,0,0,0-8.64,8.58,24.07,24.07,0,0,0-2.45,18.56A23.43,23.43,0,0,0,885.9,352Z" transform="translate(-80 -12.35)"/><path class="cls-4" d="M935.8,356.84a24.56,24.56,0,0,0,7.76,5.12,23.92,23.92,0,0,0,9.36,1.87,21.86,21.86,0,0,0,8.4-1.58,26.23,26.23,0,0,0,7-4.32,2.75,2.75,0,0,0,1.39-2,1.86,1.86,0,0,0-.2-.81,5.85,5.85,0,0,0-.64-.95c-.3-.37-.68-.82-1.14-1.36s-1-1.2-1.68-2a2.84,2.84,0,0,0-.82-.73,1.68,1.68,0,0,0-.76-.22,1.63,1.63,0,0,0-.84.24,4.93,4.93,0,0,0-.84.64,0,0,0,0,0,0,0,15.05,15.05,0,0,1-1.95,1.48,17,17,0,0,1-2.44,1.26,15.87,15.87,0,0,1-2.83.88,14.88,14.88,0,0,1-3.17.33,13.59,13.59,0,0,1-4.32-.72,13.35,13.35,0,0,1-4-2.12,14.09,14.09,0,0,1-3.16-3.44,12.27,12.27,0,0,1-1.81-4.66h32.46a8.33,8.33,0,0,0,2-.2,2,2,0,0,0,1.55-1.8,14.5,14.5,0,0,0,.09-1.77,28.47,28.47,0,0,0-1-7.87,21.91,21.91,0,0,0-3.22-6.63,22.44,22.44,0,0,0-3.73-4,24.36,24.36,0,0,0-4.56-3,24,24,0,0,0-5.14-1.92,22.68,22.68,0,0,0-5.49-.68,23.88,23.88,0,0,0-6.46.86,23,23,0,0,0-10.41,6.22,23.74,23.74,0,0,0-3.61,4.87,24.62,24.62,0,0,0-2.28,5.69,24.27,24.27,0,0,0-.81,6.29,22.92,22.92,0,0,0,2,9.43A24.62,24.62,0,0,0,935.8,356.84Zm5.4-25.8a14.73,14.73,0,0,1,3-3.19,14.36,14.36,0,0,1,3.75-2.14,11.76,11.76,0,0,1,4.21-.78,14.34,14.34,0,0,1,4.65.73,12.68,12.68,0,0,1,3.84,2.07,13,13,0,0,1,2.87,3.18,14.12,14.12,0,0,1,1.78,4.08H939.35A12.85,12.85,0,0,1,941.2,331Z" transform="translate(-80 -12.35)"/></svg>